<svg width="16" height="16" viewBox="0 0 16 16" fill="none" xmlns="http://www.w3.org/2000/svg">
<path d="M8.00004 0.93457C4.71216 0.93457 1.77888 3.29779 1.0911 6.51583C0.747481 8.12377 0.978961 9.83359 1.74558 11.2885C2.4834 12.6888 3.693 13.8204 5.1402 14.4618C6.64554 15.129 8.37372 15.2453 9.95592 14.7903C11.4823 14.3514 12.8357 13.3882 13.7572 12.0953C15.6837 9.39223 15.4261 5.59531 13.1596 3.17323C11.8312 1.75375 9.9444 0.93457 8.00004 0.93457ZM11.3893 8.37703L9.46326 10.3495C8.97564 10.849 8.20488 10.0923 8.69052 9.59509L9.66234 8.59987H5.05686C4.7298 8.59987 4.45692 8.32681 4.45692 7.99993C4.45692 7.67305 4.72998 7.39999 5.05686 7.39999H9.6393L8.64822 6.40909C8.15574 5.91661 8.9193 5.15287 9.41178 5.64535L11.3848 7.61815C11.4853 7.71858 11.5421 7.85459 11.5429 7.99667C11.5438 8.13874 11.4886 8.27542 11.3893 8.37703Z" fill="#0E0F13"/>
</svg>
